# xmcd
#
# Track frame offsets:
# 182
# 28915
# 54410
# 78752
# 117150
# 138135
# 161865
#
# Disc length: 2323 seconds
#
#
# Revision: 2
# Processed by: cddbd v1.5.1PL2 Copyright (c) Steve Scherf et al.
# Submitted via: FreeRIP 2.943 
#
DISCID=52091107
DTITLE=Ahmad Jamal - In Concert
DYEAR=1900
DGENRE=Jazz
TTITLE0=Waltz for Debby
TTITLE1=Folks who Live on the Hill
TTITLE2=People
TTITLE3=Baia
TTITLE4=The Good Life
TTITLE5=Autumn in New York
TTITLE6=I've Never Been in Love Before
EXTD=
EXTT0=
EXTT1=
EXTT2=
EXTT3=
EXTT4=
EXTT5=
EXTT6=
PLAYORDER=
